# mmind_convex 2.2.0-dev-03-27 1
o geometry1
v 0.0026992953 -0.006540703 0.014299637
v 0.0036989038 -0.006140345 0.013606891
v 0.0036989038 -0.006140345 0.014992384
v 0.0018535631 -0.005705705 0.018098228
v 0.00062607677 -0.0059664887 0.018098228
v 0 -0.005999546 0.018098228
v -0.00062607677 -0.0059664887 0.018098228
v 0.0013249805 -0.006365623 0.014299637
v 0.0013249805 -0.0050666006 0.0024006949
v 0.0026992953 -0.005241681 0.0024006949
v 0.0036989038 -0.005241681 0.0024006949
v 0.0060000005 -0.0019996343 0.0010010274
v 0.0060000005 -0.0019996343 0.01345275
v 0.0054808147 -0.002440396 0.018098228
v 0.0048535634 -0.0035263835 0.018098228
v 0.004013704 -0.0044581047 0.018098228
v 0.0030000003 -0.005195156 0.018098228
v 0.005868442 -0.0012466668 0.018098228
v 0.0060000005 -2.9083458e-07 0.018098228
v 0.005868442 0.0012473094 0.018098228
v 0.0054808147 0.0024398144 0.018098228
v 0.0048535634 0.003525802 0.018098228
v 0.004013704 0.0044587473 0.018098228
v 0.0030000003 0.005195799 0.018098228
v 0.0018535631 0.0057051233 0.018098228
v 0.00062607677 0.0059671314 0.018098228
v -0.00062607677 0.0059671314 0.018098228
v -0.0018535631 0.0057051233 0.018098228
v -0.0030000003 0.005195799 0.018098228
v -0.004013704 0.0044587473 0.018098228
v -0.0048535634 0.003525802 0.018098228
v -0.0054808147 0.0024398144 0.018098228
v -0.005868442 0.0012473094 0.018098228
v -0.0060000005 -2.9083458e-07 0.018098228
v -0.005868442 -0.0012466668 0.018098228
v -0.0054808147 -0.002440396 0.018098228
v -0.0048535634 -0.0035263835 0.018098228
v -0.004013704 -0.0044581047 0.018098228
v -0.0030000003 -0.005195156 0.018098228
v -0.0018535631 -0.005705705 0.018098228
v -0.0018535631 -0.005705705 0.015998727
v -0.00062607677 -0.0059664887 0.015998727
v -0.001595145 -0.0042071156 1.7713755e-06
v -0.00054150354 -0.004466675 1.7713755e-06
v 0.0026992953 -0.0051351637 0.0020002834
v 0.0036989038 -0.0051351637 0.0020002834
v 0.0036989038 -0.0048413225 0.0017079478
v 0.0025559908 -0.0037026883 1.7713755e-06
v 0.0033676587 -0.002984002 1.7713755e-06
v 0.0039843386 -0.0020902355 1.7713755e-06
v 0.004368442 -0.0010764837 1.7713755e-06
v 0.0044988254 -2.9083458e-07 1.7713755e-06
v 0.0060000005 -2.9083458e-07 0.0010010274
v -0.0030000003 -0.005195156 0.015998727
v -0.0025559908 -0.0037026883 1.7713755e-06
v -0.0033676587 -0.002984002 1.7713755e-06
v -0.0039843386 -0.0020902355 1.7713755e-06
v -0.004368442 -0.0010764837 1.7713755e-06
v -0.0044988254 -2.9083458e-07 1.7713755e-06
v -0.004368442 0.001075902 1.7713755e-06
v -0.0039843386 0.002090878 1.7713755e-06
v -0.0033676587 0.0029834204 1.7713755e-06
v -0.0025559908 0.003703331 1.7713755e-06
v -0.001595145 0.0042065335 1.7713755e-06
v -0.00054150354 0.004466093 1.7713755e-06
v 0.00054150354 0.004466093 1.7713755e-06
v 0.001595145 0.0042065335 1.7713755e-06
v 0.0025559908 0.003703331 1.7713755e-06
v 0.0033676587 0.0029834204 1.7713755e-06
v 0.0039843386 0.002090878 1.7713755e-06
v 0.004368442 0.001075902 1.7713755e-06
v 0.001595145 -0.0042071156 1.7713755e-06
v 0.00054150354 -0.004466675 1.7713755e-06
v 0.005868442 0.0012473094 0.0010010274
v -0.004013704 -0.0044581047 0.015998727
v 0.0054808147 0.0024398144 0.0010010274
v -0.0048535634 -0.0035263835 0.015998727
v -0.0060000005 -2.9083458e-07 0.0010010274
v 0.0048535634 0.003525802 0.0010010274
v -0.0054808147 -0.002440396 0.015998727
v -0.005868442 0.0012473094 0.0010010274
v -0.005868442 -0.0012466668 0.015998727
v 0.004013704 0.0044587473 0.0010010274
v -0.0054808147 0.0024398144 0.0010010274
v 0.0030000003 0.005195799 0.0010010274
v -0.0048535634 0.003525802 0.0010010274
v 0.0018535631 0.0057051233 0.0010010274
v -0.004013704 0.0044587473 0.0010010274
v -0.00062607677 0.0059671314 0.0010010274
v 0.00062607677 0.0059671314 0.0010010274
v -0.0030000003 0.005195799 0.0010010274
v -0.0018535631 0.0057051233 0.0010010274
vn 0.37180293 -0.92831177 0
vn 0.20335108 -0.94580555 0.2531798
vn 0.20106508 -0.9463956 0.25280058
vn 0.051895734 -0.9828601 0.17689808
vn -0.052440118 -0.99317026 0.10422543
vn -0.12627564 -0.9912167 0.03929284
vn -0.12563863 -0.9862165 -0.10766646
vn -0.12563865 -0.9862164 -0.107666455
vn 0 -0.99409354 -0.108526416
vn 0.3251524 -0.9426354 -0.07559321
vn 0.80477166 -0.59168506 -0.04744928
vn 0.87409437 -0.48575616 0
vn 0.87409437 -0.4857562 0
vn 0.86172324 -0.49771938 0.09853113
vn 0.7138839 -0.6434993 0.27618566
vn 0.54999983 -0.7564423 0.35397065
vn 0.38159475 -0.856871 0.3466378
vn 0.88120145 -0.4696554 0.05392366
vn 0 0 1
vn 0 0 0.99999994
vn -0.20781526 -0.97816813 0
vn -0.20042239 -0.9797096 -0
vn -0.20780711 -0.9781298 -0.008850995
vn -0.25045595 -0.9635236 -0.09430848
vn -0.23806013 -0.9663675 -0.09726949
vn -0.1771879 -0.978364 -0.10680921
vn -0.124979645 -0.9810436 -0.14809994
vn -0.040772684 -0.9655869 -0.25686488
vn 0 -0.96639055 -0.25707865
vn 0.7695778 -0.6170917 -0.16415839
vn 0.5468661 -0.59048164 -0.5935223
vn 0.4726305 -0.5533439 -0.6858797
vn 0.466698 -0.52707803 -0.7101983
vn 0.4345139 -0.29980534 -0.84930235
vn 0.4438928 -0.16818793 -0.8801546
vn 0.4963742 -0.060136925 -0.8660232
vn 0.5541137 0 -0.83244103
vn 1 0 0
vn 0.99999994 0 0
vn 0.9483057 -0.30793336 0.07676748
vn 0.9934622 -0.10486283 0.04513138
vn -0.4068178 -0.91350937 0
vn -0.40510148 -0.9096554 -0.0917603
vn 0 0 -1
vn 0 0 -0.99999994
vn -0.46271625 -0.8813935 -0.09507447
vn 0 -0.9483529 -0.31721747
vn 0 -0.9483529 -0.3172174
vn 0.19570889 -0.7944493 -0.5749334
vn 0.34065405 -0.66310424 -0.6665191
vn 0.3451124 -0.6573789 -0.6698883
vn 0.5479264 0.06638258 -0.83388835
vn 0.5531702 0.058331437 -0.8310236
vn 0.99448615 0.10486792 0
vn -0.58807373 -0.80880725 0
vn -0.5856123 -0.80542207 -0.09139764
vn -0.6599028 -0.74527913 -0.09532721
vn 0.513039 0.19415244 -0.83611953
vn 0.5322827 0.17302 -0.8286973
vn 0.9510192 0.30913153 0
vn -0.7427746 -0.6695416 0
vn -0.7396715 -0.66674453 -0.091311835
vn -0.7441934 -0.51347756 -0.42722034
vn -0.7618313 -0.6411368 -0.09250194
vn 0.44971412 0.31071877 -0.8373835
vn 0.4867254 0.2811258 -0.82708323
vn 0.865937 0.5001532 0
vn -0.865937 -0.5001532 0
vn -0.8647954 -0.4994938 -0.051329743
vn -0.5531702 0.058331437 -0.8310236
vn -0.5528693 -0.06698145 -0.83057153
vn -0.6150536 -0.23303956 -0.7532608
vn -0.95096976 -0.3087984 -0.0173207
vn -0.9944754 -0.10496979 0
vn -0.9944754 -0.104969785 0
vn -0.99448615 0.10486792 0
vn 0.36244056 0.40863588 -0.83764774
vn 0.4183569 0.37661463 -0.82652223
vn 0.7432116 0.6690565 0
vn -0.95111245 -0.30884475 0
vn -0.5322827 0.17302002 -0.8286974
vn -0.5479264 0.06638262 -0.8338884
vn -0.9510192 0.30913153 0
vn 0.25390646 0.48482472 -0.8369447
vn 0.3308745 0.4550683 -0.82670116
vn 0.58807373 0.80880725 0
vn -0.4867254 0.2811258 -0.8270833
vn -0.513039 0.19415241 -0.83611953
vn -0.865937 0.5001532 0
vn 0.13158415 0.5341452 -0.8350895
vn 0.22777545 0.51269925 -0.827803
vn 0.40600327 0.9138716 0
vn -0.41835687 0.37661463 -0.8265222
vn -0.44971415 0.31071877 -0.83738345
vn -0.7432116 0.6690565 0
vn 0 0.55414873 -0.8324177
vn 0 0.55414873 -0.83241767
vn 0.11650538 0.5458181 -0.8297644
vn 0.2087484 0.97796935 0
vn -0.3308745 0.4550683 -0.82670116
vn -0.3624406 0.4086359 -0.83764774
vn -0.58807373 0.80880725 0
vn -0.13158415 0.5341452 -0.8350895
vn -0.11650538 0.5458181 -0.8297644
vn 0 1 0
vn -0.2277755 0.51269925 -0.827803
vn -0.25390646 0.48482472 -0.8369448
vn -0.40600327 0.9138716 0
vn -0.2087484 0.97796935 0
f 1//1 2//1 3//1
f 1//2 3//2 4//2
f 1//3 4//3 5//3
f 1//4 5//4 6//4
f 1//5 6//5 7//5
f 1//6 7//6 8//6
f 1//7 8//7 9//7
f 1//8 9//8 10//8
f 1//9 10//9 11//9
f 1//10 11//10 2//10
f 2//11 11//11 12//11
f 2//12 12//12 13//12
f 2//13 13//13 3//13
f 3//14 14//14 15//14
f 3//15 15//15 16//15
f 3//16 16//16 17//16
f 3//17 17//17 4//17
f 3//18 13//18 14//18
f 4//19 17//19 16//19
f 4//19 16//19 15//19
f 4//19 15//19 14//19
f 4//20 14//20 18//20
f 4//19 18//19 19//19
f 4//19 19//19 20//19
f 4//19 20//19 21//19
f 4//19 21//19 22//19
f 4//20 22//20 23//20
f 4//19 23//19 24//19
f 4//19 24//19 25//19
f 4//19 25//19 26//19
f 4//19 26//19 27//19
f 4//20 27//20 28//20
f 4//19 28//19 29//19
f 4//20 29//20 30//20
f 4//19 30//19 31//19
f 4//19 31//19 32//19
f 4//20 32//20 33//20
f 4//19 33//19 34//19
f 4//19 34//19 35//19
f 4//20 35//20 36//20
f 4//19 36//19 37//19
f 4//19 37//19 38//19
f 4//19 38//19 39//19
f 4//19 39//19 40//19
f 4//19 40//19 7//19
f 4//19 7//19 6//19
f 4//19 6//19 5//19
f 7//21 40//21 41//21
f 7//21 41//21 42//21
f 7//22 42//22 8//22
f 8//23 42//23 41//23
f 8//24 41//24 43//24
f 8//25 43//25 44//25
f 8//26 44//26 9//26
f 10//27 9//27 44//27
f 10//28 44//28 45//28
f 10//29 45//29 46//29
f 10//29 46//29 11//29
f 11//30 46//30 12//30
f 12//31 46//31 47//31
f 12//32 47//32 48//32
f 12//33 48//33 49//33
f 12//34 49//34 50//34
f 12//35 50//35 51//35
f 12//36 51//36 52//36
f 12//37 52//37 53//37
f 12//38 53//38 19//38
f 12//39 19//39 13//39
f 14//40 13//40 18//40
f 13//41 19//41 18//41
f 40//42 39//42 54//42
f 40//42 54//42 41//42
f 41//43 54//43 43//43
f 43//44 55//44 56//44
f 43//45 56//45 57//45
f 43//45 57//45 58//45
f 43//44 58//44 59//44
f 43//44 59//44 60//44
f 43//44 60//44 61//44
f 43//44 61//44 62//44
f 43//44 62//44 63//44
f 43//44 63//44 64//44
f 43//44 64//44 65//44
f 43//44 65//44 66//44
f 43//44 66//44 67//44
f 43//44 67//44 68//44
f 43//44 68//44 69//44
f 43//44 69//44 70//44
f 43//44 70//44 71//44
f 43//44 71//44 52//44
f 43//44 52//44 51//44
f 43//44 51//44 50//44
f 43//44 50//44 49//44
f 43//44 49//44 48//44
f 43//45 48//45 72//45
f 43//44 72//44 73//44
f 43//44 73//44 44//44
f 43//46 54//46 55//46
f 44//47 73//47 46//47
f 44//48 46//48 45//48
f 46//49 73//49 72//49
f 46//50 72//50 47//50
f 47//51 72//51 48//51
f 52//52 71//52 74//52
f 52//53 74//53 53//53
f 53//54 74//54 20//54
f 53//54 20//54 19//54
f 39//55 38//55 75//55
f 39//55 75//55 54//55
f 54//56 75//56 55//56
f 55//57 75//57 56//57
f 71//58 70//58 76//58
f 71//59 76//59 74//59
f 74//60 76//60 21//60
f 74//60 21//60 20//60
f 38//61 37//61 77//61
f 38//61 77//61 75//61
f 75//62 77//62 56//62
f 56//63 78//63 57//63
f 56//64 77//64 78//64
f 70//65 69//65 79//65
f 70//66 79//66 76//66
f 76//67 79//67 22//67
f 76//67 22//67 21//67
f 37//68 36//68 80//68
f 37//68 80//68 77//68
f 77//69 80//69 78//69
f 78//70 81//70 59//70
f 78//71 59//71 58//71
f 78//72 58//72 57//72
f 78//73 80//73 82//73
f 78//74 82//74 35//74
f 78//75 35//75 34//75
f 78//76 34//76 33//76
f 78//76 33//76 81//76
f 69//77 68//77 83//77
f 69//78 83//78 79//78
f 79//79 83//79 23//79
f 79//79 23//79 22//79
f 36//80 35//80 82//80
f 36//80 82//80 80//80
f 81//81 84//81 60//81
f 81//82 60//82 59//82
f 81//83 33//83 32//83
f 81//83 32//83 84//83
f 68//84 67//84 85//84
f 68//85 85//85 83//85
f 83//86 85//86 24//86
f 83//86 24//86 23//86
f 84//87 86//87 61//87
f 84//88 61//88 60//88
f 84//89 32//89 31//89
f 84//89 31//89 86//89
f 67//90 66//90 87//90
f 67//91 87//91 85//91
f 85//92 87//92 25//92
f 85//92 25//92 24//92
f 86//93 88//93 62//93
f 86//94 62//94 61//94
f 86//95 31//95 30//95
f 86//95 30//95 88//95
f 66//96 65//96 89//96
f 66//97 89//97 90//97
f 66//98 90//98 87//98
f 87//99 90//99 26//99
f 87//99 26//99 25//99
f 88//100 91//100 63//100
f 88//101 63//101 62//101
f 88//102 30//102 29//102
f 88//102 29//102 91//102
f 65//103 64//103 92//103
f 65//104 92//104 89//104
f 90//105 89//105 27//105
f 90//105 27//105 26//105
f 91//106 92//106 64//106
f 91//107 64//107 63//107
f 91//108 29//108 28//108
f 91//108 28//108 92//108
f 92//109 28//109 27//109
f 92//109 27//109 89//109
o geometry2
v -0.005999999 -1.8067658e-06 0.015998434
v 0.00487333 -0.0035013342 0.015998434
v 0.0050655287 -0.003216222 0.01597181
v 0.0052374974 -0.0029265108 0.01588567
v 0.005367878 -0.002680486 0.015755678
v 0.0054825237 -0.0024390602 0.015563039
v 0.00414949 -1.8067658e-06 0.0135990605
v 0.0029906724 0.00022352394 0.0135990605
v -0.0041162185 0.0005201325 0.0135990605
v -0.0041162185 0.0005201325 0.0042004697
v -0.005999999 -1.8067658e-06 0.0010007829
v -0.005999999 -0.008302262 0.0010007829
v -0.005999999 -0.009608261 0.0011245105
v -0.005999999 -0.010868275 0.0014878623
v -0.005999999 -0.020844916 0.005622553
v -0.005999999 -0.021619778 0.0059765074
v -0.005999999 -0.02226588 0.0065356307
v -0.005999999 -0.022728037 0.007254503
v -0.005999999 -0.022969464 0.008072045
v -0.005999999 -0.022969464 0.008925607
v -0.005999999 -0.022728037 0.009744715
v -0.005999999 -0.02226588 0.010463587
v -0.005999999 -0.021619778 0.01102271
v -0.005999999 -0.020844916 0.0113782305
v -0.005999999 -0.009369135 0.015899766
v -0.005999999 -0.0088356985 0.015998434
v 0.004699114 -0.0088356985 0.015998434
v 0.004699114 -0.009369135 0.015899766
v 0.004699114 -0.0020021936 0.0010007829
v 0.004499046 -1.8067658e-06 1.5664846e-06
v 0.004499046 -1.8067658e-06 0.0010007829
v 0.004699114 -0.020844916 0.0113782305
v 0.004699114 -0.021619778 0.01102271
v 0.004699114 -0.02226588 0.010463587
v 0.004699114 -0.022728037 0.009744715
v 0.004699114 -0.022969464 0.008925607
v 0.004699114 -0.022969464 0.008072045
v 0.004699114 -0.022728037 0.007254503
v 0.004699114 -0.02226588 0.0065356307
v 0.004699114 -0.021619778 0.0059765074
v 0.004699114 -0.020844916 0.005622553
v 0.004699114 -0.010868275 0.0014878623
v 0.004699114 -0.009608261 0.0011245105
v 0.004699114 -0.008302262 0.0010007829
v 0.0029906724 0.00022352394 1.5664846e-06
v -0.0039678537 0.0004994394 0.0022004698
v -0.0029911199 0.00022352394 1.5664846e-06
v -0.004499493 -1.8067658e-06 1.5664846e-06
v 0.0043686647 -0.0010778774 1.5664846e-06
v 0.003984266 -0.002091866 1.5664846e-06
v 0.0033672038 -0.0029862924 1.5664846e-06
v 0.0025556942 -0.003703672 1.5664846e-06
v 0.001594696 -0.004209517 1.5664846e-06
v 0.0005415319 -0.0044693374 1.5664846e-06
v -0.0005419795 -0.0044693374 1.5664846e-06
v -0.0015951436 -0.004209517 1.5664846e-06
v -0.0025561417 -0.003703672 1.5664846e-06
v -0.0033676513 -0.0029862924 1.5664846e-06
v -0.0039835894 -0.002091866 1.5664846e-06
v -0.0043691127 -0.0010778774 1.5664846e-06
v -0.003466561 0.000476446 0.0019999999
vn 0.024616798 0.07648648 0.9967667
vn 0.073221475 0.2440532 0.9669937
vn 0.11700624 0.4147777 0.90236855
vn 0.15186538 0.5714027 0.8064961
vn 0.1701525 0.67305356 0.7197548
vn 0.14850925 0.76374507 0.6282026
vn 0.040453248 0.96928024 0.24260934
vn -0.26701066 0.96369356 0
vn -0.26701066 0.9636936 0
vn -1 0 -0
vn -0.99999994 0 0
vn 0 0 0.99999994
vn 0 0 1
vn 0.14405935 -0.004704861 0.9895579
vn 0.4842539 -0.027432209 0.8744973
vn 0.7563492 -0.05647383 0.65172577
vn 0.89714515 -0.080343716 0.43436804
vn 0.8975986 -0.08040954 0.433418
vn 0.9959383 0.07395325 -0.051360194
vn 0.92734736 0.3742016 0
vn 0.86878663 0.4945997 0.024105644
vn 0.9643227 -0.09704423 0.24630088
vn 0.98013955 -0.08269818 0.18024257
vn 0.99632955 -0.05601609 0.06472991
vn 0.99842 -0.047265712 0.030386794
vn 0.99903464 -0.042136915 0.012419503
vn 0.9992728 -0.038130756 0
vn 0.9993556 -0.034424663 -0.010165833
vn 0.9993405 -0.03054539 -0.019637385
vn 0.9992182 -0.025870308 -0.02989467
vn 0.99890006 -0.019482283 -0.042649888
vn 0.9988371 -0.018458921 -0.04453974
vn 0.9987822 -0.0136701325 -0.04740456
vn 0.9986479 -0.004902782 -0.051750533
vn 0.9985561 0 -0.05371961
vn 0.1908711 0.9816008 0.0052959747
vn 0.14774705 0.98902524 0
vn 0.14774702 0.9890252 0
vn 0.041699044 0.99913025 0
vn 0.041699044 0.9991302 0
vn -0.22449116 0.9741094 -0.026731953
vn -0.13321885 0.97433805 -0.18143332
vn -0.14423954 0.96554565 -0.21660201
vn -0.5542697 -0 -0.83233714
vn 0 -0.18188167 0.9833205
vn 0 -0.3665788 0.930387
vn 0.98053837 0 -0.19632782
vn 0.7271153 -0.06474906 -0.6834551
vn 0.63370514 -0.076782495 -0.7697547
vn 0 0 -1
vn 0 0 -0.99999994
vn 0 -0.4170183 0.9088982
vn 0 -0.6543749 0.75617045
vn 0 -0.8411649 0.5407788
vn 0 -0.9592028 0.28271896
vn -0 -1 0
vn -0 -0.95905584 -0.2832171
vn -0 -0.84116507 -0.5407785
vn -0 -0.6543749 -0.75617045
vn -0 -0.41549903 -0.9095936
vn -0 -0.3828597 -0.92380637
vn -0 -0.27708068 -0.96084666
vn -0 -0.21347997 -0.9769474
vn 0 -0.21347992 -0.9769475
vn 0.044168953 -0.17903562 -0.9828507
vn 0.082711354 -0.15713412 -0.98410755
vn 0.12499093 -0.14139143 -0.98203146
vn 0.18542506 -0.12792425 -0.9742961
vn 0.29856327 -0.11318403 -0.9476546
vn 0 0.9920862 -0.1255586
vn 0.016191144 0.9971356 -0.07388171
vn 0.03722834 0.99927807 -0.007577378
vn -0.0052003358 0.9919179 -0.12677449
vn -0.36997306 -0.04482724 -0.92796034
vn -0.2217393 -0.08430634 -0.9714546
vn -0.19879946 -0.09243304 -0.97567147
vn -0.15339515 -0.10563413 -0.98250264
vn -0.109403856 -0.12375912 -0.9862629
vn -0.07557728 -0.14358082 -0.9867485
vn -0.042053044 -0.17045897 -0.9844671
f 93//110 94//110 95//110
f 93//111 95//111 96//111
f 93//112 96//112 97//112
f 93//113 97//113 98//113
f 93//114 98//114 99//114
f 93//115 99//115 100//115
f 93//116 100//116 101//116
f 93//117 101//117 102//117
f 93//118 102//118 103//118
f 93//119 103//119 104//119
f 93//119 104//119 105//119
f 93//119 105//119 106//119
f 93//119 106//119 107//119
f 93//119 107//119 108//119
f 93//119 108//119 109//119
f 93//119 109//119 110//119
f 93//119 110//119 111//119
f 93//119 111//119 112//119
f 93//119 112//119 113//119
f 93//119 113//119 114//119
f 93//120 114//120 115//120
f 93//119 115//119 116//119
f 93//119 116//119 117//119
f 93//120 117//120 118//120
f 93//121 118//121 119//121
f 93//122 119//122 94//122
f 94//123 119//123 95//123
f 95//124 119//124 96//124
f 96//125 119//125 97//125
f 97//126 119//126 120//126
f 97//127 120//127 98//127
f 98//128 121//128 122//128
f 98//129 122//129 123//129
f 98//130 123//130 99//130
f 98//131 120//131 124//131
f 98//132 124//132 125//132
f 98//133 125//133 126//133
f 98//134 126//134 127//134
f 98//135 127//135 128//135
f 98//136 128//136 129//136
f 98//137 129//137 130//137
f 98//138 130//138 131//138
f 98//139 131//139 132//139
f 98//140 132//140 133//140
f 98//141 133//141 134//141
f 98//142 134//142 135//142
f 98//143 135//143 136//143
f 98//144 136//144 121//144
f 99//145 123//145 100//145
f 100//146 123//146 122//146
f 100//147 122//147 137//147
f 100//148 137//148 102//148
f 100//149 102//149 101//149
f 103//150 102//150 138//150
f 103//151 138//151 139//151
f 103//152 139//152 140//152
f 103//153 140//153 104//153
f 118//154 117//154 120//154
f 118//154 120//154 119//154
f 120//155 117//155 116//155
f 120//155 116//155 124//155
f 121//156 136//156 122//156
f 122//157 136//157 135//157
f 122//158 135//158 141//158
f 122//159 141//159 142//159
f 122//160 142//160 143//160
f 122//159 143//159 144//159
f 122//159 144//159 145//159
f 122//159 145//159 146//159
f 122//159 146//159 147//159
f 122//159 147//159 148//159
f 122//159 148//159 149//159
f 122//159 149//159 150//159
f 122//159 150//159 151//159
f 122//159 151//159 152//159
f 122//159 152//159 140//159
f 122//159 140//159 139//159
f 122//159 139//159 137//159
f 124//161 116//161 115//161
f 124//161 115//161 125//161
f 125//162 115//162 114//162
f 125//162 114//162 126//162
f 126//163 114//163 113//163
f 126//163 113//163 127//163
f 127//164 113//164 112//164
f 127//164 112//164 128//164
f 128//165 112//165 111//165
f 128//165 111//165 129//165
f 129//166 111//166 110//166
f 129//166 110//166 130//166
f 130//167 110//167 109//167
f 130//167 109//167 131//167
f 131//168 109//168 108//168
f 131//168 108//168 132//168
f 132//169 108//169 107//169
f 132//169 107//169 133//169
f 133//170 107//170 106//170
f 133//170 106//170 134//170
f 134//171 106//171 105//171
f 134//171 105//171 135//171
f 135//172 105//172 147//172
f 135//173 147//173 146//173
f 135//174 146//174 145//174
f 135//175 145//175 144//175
f 135//176 144//176 143//176
f 135//177 143//177 142//177
f 135//178 142//178 141//178
f 137//179 139//179 153//179
f 137//180 153//180 138//180
f 137//181 138//181 102//181
f 138//182 153//182 139//182
f 140//183 152//183 104//183
f 104//184 152//184 151//184
f 104//185 151//185 105//185
f 105//186 151//186 150//186
f 105//187 150//187 149//187
f 105//188 149//188 148//188
f 105//189 148//189 147//189
